<?xml version="1.0" encoding="UTF-8" standalone="no"?>
<!-- Created with Inkscape (http://www.inkscape.org/) -->

<svg
   width="200mm"
   height="200mm"
   viewBox="0 0 200 200"
   version="1.1"
   id="svg1222"
   inkscape:version="1.1 (c68e22c387, 2021-05-23)"
   sodipodi:docname="AMD.svg"
   xmlns:inkscape="http://www.inkscape.org/namespaces/inkscape"
   xmlns:sodipodi="http://sodipodi.sourceforge.net/DTD/sodipodi-0.dtd"
   xmlns="http://www.w3.org/2000/svg"
   xmlns:svg="http://www.w3.org/2000/svg">
  <sodipodi:namedview
     inkscape:zoom="0.64"
     inkscape:cx="346.09375"
     inkscape:cy="403.90625"
     inkscape:window-width="1920"
     inkscape:window-height="1017"
     inkscape:window-x="-8"
     inkscape:window-y="-8"
     inkscape:window-maximized="1"
     inkscape:current-layer="layer1"
     pagecolor="#000000"
     inkscape:pageopacity="0"
     bordercolor="#ffffff"
     borderopacity="1"
     id="namedview2825"
     inkscape:pageshadow="2"
     inkscape:pagecheckerboard="0"
     inkscape:document-units="mm" />
  <defs
     id="defs2827" />
  <g
     inkscape:label="Capa 1"
     inkscape:groupmode="layer"
     id="layer1">
    <g
       id="g2823"
       transform="translate(0,0.50490585)">
      <g
         id="g842"
         style="fill:#ffffff"
         transform="matrix(1.3158998,0,0,1.3158998,33.237823,132.16513)">
        <path
           class="cls-1"
           d="M 33,31.14 H 25.21 L 22.84,25.42 H 9.92 L 7.76,31.14 H 0.14 L 11.78,2.26 h 8.34 z m -16.89,-22 -4.28,11.25 h 8.89 z"
           transform="translate(-0.14,-0.03)"
           id="path8"
           style="fill:#ffffff"
           inkscape:export-filename="G:\Users\suitedoalex\sites\amd-logo-5.png"
           inkscape:export-xdpi="137.41769"
           inkscape:export-ydpi="137.41769" />
        <path
           class="cls-1"
           d="m 61.1,2.26 h 6.27 v 28.88 h -7.2 v -18 l -7.79,9.06 h -1.1 l -7.79,-9.1 v 18 h -7.2 V 2.26 h 6.27 L 51.83,13 Z"
           transform="translate(-0.14,-0.03)"
           id="path10"
           style="fill:#ffffff"
           inkscape:export-filename="G:\Users\suitedoalex\sites\amd-logo-5.png"
           inkscape:export-xdpi="137.41769"
           inkscape:export-ydpi="137.41769" />
        <path
           class="cls-1"
           d="m 85.61,2.26 c 10.54,0 16,6.56 16,14.48 0,8.3 -5.25,14.4 -16.77,14.4 H 72.86 V 2.26 Z m -5.55,23.59 h 4.7 c 7.24,0 9.4,-4.91 9.4,-9.15 0,-5 -2.67,-9.15 -9.48,-9.15 h -4.62 z"
           transform="translate(-0.14,-0.03)"
           id="path12"
           style="fill:#ffffff"
           inkscape:export-filename="G:\Users\suitedoalex\sites\amd-logo-5.png"
           inkscape:export-xdpi="137.41769"
           inkscape:export-ydpi="137.41769" />
      </g>
      <g
         id="g837"
         style="fill:#d40000"
         transform="matrix(2.2340405,0,0,2.2340405,-174.92102,25.887414)">
        <polygon
           class="cls-1"
           points="130.64,23.97 130.64,9.08 115.75,9.08 106.68,0 139.72,0 139.72,33.05 "
           id="polygon14"
           style="fill:#d40000"
           inkscape:export-filename="G:\Users\suitedoalex\sites\amd-logo-5.png"
           inkscape:export-xdpi="137.41769"
           inkscape:export-ydpi="137.41769" />
        <polygon
           class="cls-1"
           points="128.82,23.98 115.74,23.98 115.74,10.9 106.4,20.24 106.4,33.33 119.48,33.33 "
           id="polygon16"
           style="fill:#d40000"
           inkscape:export-filename="G:\Users\suitedoalex\sites\amd-logo-5.png"
           inkscape:export-xdpi="137.41769"
           inkscape:export-ydpi="137.41769" />
      </g>
    </g>
  </g>
</svg>
