<?xml version="1.0" encoding="UTF-8" standalone="no"?>
<!-- Created with Inkscape (http://www.inkscape.org/) -->

<svg
   width="200mm"
   height="200mm"
   viewBox="0 0 200 200"
   version="1.1"
   id="svg1222"
   inkscape:version="1.1 (c68e22c387, 2021-05-23)"
   sodipodi:docname="Aorusl.svg"
   xmlns:inkscape="http://www.inkscape.org/namespaces/inkscape"
   xmlns:sodipodi="http://sodipodi.sourceforge.net/DTD/sodipodi-0.dtd"
   xmlns="http://www.w3.org/2000/svg"
   xmlns:svg="http://www.w3.org/2000/svg">
  <sodipodi:namedview
     inkscape:zoom="0.64"
     inkscape:cx="346.09375"
     inkscape:cy="403.90625"
     inkscape:window-width="1920"
     inkscape:window-height="1017"
     inkscape:window-x="-8"
     inkscape:window-y="-8"
     inkscape:window-maximized="1"
     inkscape:current-layer="layer1"
     pagecolor="#000000"
     inkscape:pageopacity="0"
     bordercolor="#ffffff"
     borderopacity="1"
     id="namedview3130"
     inkscape:pageshadow="2"
     inkscape:pagecheckerboard="0"
     inkscape:document-units="mm" />
  <defs
     id="defs3132" />
  <g
     inkscape:label="Capa 1"
     inkscape:groupmode="layer"
     id="layer1">
    <g
       id="g925"
       transform="matrix(0.51536618,0,0,-0.51536618,-34.768261,234.76825)">
      <path
         d="m 283.04147,285.74664 -71.44412,-72.76902 -3.83898,-17.14916 52.37491,-38.39702 119.40213,97.4573 -14.05861,20.12096 -35.64751,-7.49716 23.18827,-9.22294 -78.04228,-41.33851 -11.58302,7.5455 z m 113.95964,97.21489 6.99198,17.77217 c 3.36646,8.55657 -1.57992,16.62846 -10.10209,13.16594 l -31.10498,-12.6418 -20.34652,-22.77165 -21.73708,6.08547 40.68161,16.9266 -15.11044,3.90457 c -3.18124,0.82127 -6.7203,0.34183 -9.82711,-0.72855 -15.5828,-5.36838 -181.79658,-72.26049 -179.97519,-74.59867 0.96946,-1.24447 12.42332,2.01314 19.66654,-4.5413 -10.87727,-3.44898 -23.06979,-8.36775 -33.75035,-14.30772 23.82249,0.29418 30.84194,-1.21672 50.12331,-11.00804 -10.13122,-3.11911 -20.56952,-7.35443 -29.52824,-11.9725 11.03369,-0.65368 22.2946,-4.17119 32.41179,-9.8665 0.83787,-23.91641 0.52793,-52.07186 -2.64471,-76.21854 l 194.44675,193.04015 c 5.31119,5.27278 8.79414,4.98663 8.96689,0.0584 l 0.43233,-12.33285 c 0.0248,-0.63004 0.20955,-0.46298 0.40551,0.0349"
         style="fill:#ffffff;fill-opacity:1;fill-rule:evenodd;stroke:none;stroke-width:1.71344"
         id="path14-0"
         inkscape:connector-curvature="0"
         sodipodi:nodetypes="ccccccccccccscccccccccccccccccc"
         inkscape:export-filename="C:\Users\suitedoalex\sites\aorus-logo-5.png"
         inkscape:export-xdpi="100.30736"
         inkscape:export-ydpi="100.30736" />
      <path
         d="m 252.88248,148.18348 h 27.98511 c 1.23937,0 2.05062,-0.97596 1.6068,-2.11482 l -5.61628,-14.40852 c -0.53154,-1.36399 -1.25311,-1.3909 -2.81966,-1.39523 l -11.88316,-0.0346 c -2.65172,-0.008 -3.11589,0.90291 -2.3778,2.70123 l 3.27934,7.99091 c 0.43218,1.05297 0.56061,2.36435 -1.20761,2.36435 h -8.96982 c -1.29353,-0.14217 -1.95554,-0.36106 -2.76724,-2.39356 L 238.30374,111.3249 c -0.85632,-2.14419 0.38486,-2.82448 1.44209,-2.82448 h 8.14002 c 1.84295,0 2.50707,-0.0105 3.64129,3.00907 l 4.43346,11.80184 c 1.27513,3.3943 4.42835,3.68745 5.77649,0.34708 l 5.23878,-12.98037 c 0.62941,-1.55914 0.74898,-2.17652 2.37682,-2.17762 l 22.1275,-0.0168 c 0.009,0.0752 -0.0345,0.27934 -0.29127,0.39849 -0.31598,0.14714 -0.97762,0.29254 -1.40792,0.61288 l -3.15616,2.34971 c -1.32492,0.77056 -1.50586,0.86576 -2.70227,0.86576 h -3.07053 c -1.61665,0 -1.97357,0.82618 -2.62469,2.36621 l -3.57909,8.46503 c -0.79316,1.87652 -0.3763,2.2829 1.80584,2.2829 h 4.48574 c 4.46681,0 7.71092,2.23989 9.39419,6.7128 l 5.21429,13.14101 c 0.98724,2.48843 -0.0173,6.29897 -4.8573,6.29897 h -42.57128 c 1.94961,-1.13441 3.5948,-2.42118 4.76274,-3.79389 z m 43.86466,3.79389 c -0.0255,-0.31787 0.14008,-0.47511 0.44772,-0.55013 1.95607,-0.47675 8.03374,-4.93603 7.21566,-7.01045 l -11.04824,-28.01204 c -2.89674,-7.25806 2.41963,-7.90853 3.93098,-7.90437 h 29.21862 c 4.20505,0 7.87405,1.46423 10.2798,7.62163 l 12.69831,32.50063 c 0.96372,2.46688 1.74876,3.35473 -1.70438,3.35473 h -20.44107 c -0.0316,-0.32456 0.0946,-0.53244 0.28286,-0.59984 2.88291,-1.03231 7.69469,-4.42058 7.32133,-7.38981 L 323.44405,114.8096 c -0.62671,-1.5899 -1.72563,-2.17462 -3.34371,-2.15182 h -12.99071 c -1.66201,0 -1.54769,1.55104 -1.06827,2.79402 l 13.24856,34.34235 c 0.65247,1.69151 0.63482,2.18322 -1.7547,2.18322 z m -137.90348,-19.84263 17.05249,14.27459 c 2.16191,1.80972 6.28806,3.08394 4.52279,-1.25493 l -4.93788,-12.13493 c -1.02408,-2.3061 -1.38294,-2.57404 -3.19311,-2.56921 l -13.0453,0.0353 c -1.36805,0.004 -1.49032,0.73577 -0.39899,1.64924 z m 2.16612,-23.63436 H 177.944 c 1.84206,0 2.56022,1.44509 3.05144,2.71405 l 15.17411,38.82766 c 0.31321,0.93618 0.33343,1.93528 -2.29436,1.93528 h -18.89363 c -4.12818,0.11136 -5.1948,-0.84718 -6.29737,-1.72198 l -44.64702,-37.51091 c -1.644,-1.38108 -4.43455,-3.46034 -5.80616,-3.96519 -0.18212,-0.0671 -0.27562,-0.13718 -0.28976,-0.26537 l 11.95689,-0.0172 c 1.89887,-0.003 3.49031,1.04584 5.89905,3.08004 l 14.56204,12.29884 c 2.12337,1.79343 3.56425,2.00022 5.24644,1.97829 h 15.58531 c 0.88132,0 2.66977,-0.82569 1.81285,-2.6963 l -3.68176,-8.0364 c -1.15206,-2.51505 -4.91722,-4.8006 -7.09852,-5.80632 -0.56997,-0.26273 -1.19733,-0.62204 -1.21377,-0.81441 z m 41.94979,7.62416 11.68725,29.38331 c 0.82026,2.06215 2.02328,2.37673 4.24191,2.37673 h 11.13492 c 2.42594,0 2.78489,-0.68666 2.1747,-2.24082 l -11.99303,-30.54583 c -0.6472,-1.64876 -1.24419,-2.4327 -3.68729,-2.4327 h -12.31372 c -1.83351,0 -2.20185,1.05287 -1.24474,3.45931 z m 42.06005,29.03639 c 0.92294,2.36309 1.37509,7.14888 -5.77221,7.14888 h -27.25404 c -6.88791,0 -9.07419,-3.28216 -10.2752,-6.37153 l -11.88436,-30.56457 c -1.37484,-3.53631 -0.70578,-7.09502 5.1052,-7.09502 h 25.41948 c 9.079,0 11.62295,3.50276 13.73456,8.90907 z m 124.65404,2.72519 26.4287,-0.0403 c 2.61357,-0.004 4.02352,3.28868 6.44946,3.73096 0.19183,0.0351 0.46252,0.27961 0.45013,0.40052 l -37.20759,0.0262 c -9.29692,0.006 -9.95541,-2.13708 -15.12449,-15.45115 -1.16501,-3.00185 -3.58465,-7.49032 -0.11311,-9.87654 3.05957,-2.1038 20.95655,0.44288 25.59236,-1.19048 0.23651,-3.01992 -2.7194,-10.08507 -4.91146,-12.26839 l -2.31208,-0.60527 -25.74318,0.002 c -3.70843,3.2e-4 -2.73427,-2.59613 -6.69454,-3.6525 -0.18244,-0.0486 -0.34272,-0.27495 -0.34355,-0.47133 l 39.40266,0.0241 c 4.52156,0.003 7.88953,2.14404 9.24937,5.51921 l 4.02803,9.997 c 0.91122,2.26164 -0.3455,6.26613 -5.11267,6.24625 l -20.70186,-0.0865 c -1.8597,-0.008 -1.74899,1.81782 -1.22713,3.11812 l 5.00579,12.4702 c 0.41761,1.04036 1.66472,2.10966 2.88516,2.1078 z"
         style="fill:#ffffff;fill-opacity:1;fill-rule:evenodd;stroke:none;stroke-width:0.548051"
         id="path14-04"
         inkscape:connector-curvature="0"
         sodipodi:nodetypes="csccccccscccsscccccccccssccssccsccccccccsccscccccsccsccccccccccsccscccccccccscccccccssccssccssccsscccccccccccccccccccccccc"
         inkscape:export-filename="C:\Users\suitedoalex\sites\aorus-logo-5.png"
         inkscape:export-xdpi="100.30736"
         inkscape:export-ydpi="100.30736" />
    </g>
  </g>
</svg>
