<?xml version="1.0" encoding="UTF-8" standalone="no"?>
<!-- Created with Inkscape (http://www.inkscape.org/) -->

<svg
   width="200mm"
   height="200mm"
   viewBox="0 0 200 200"
   version="1.1"
   id="svg1222"
   inkscape:version="1.1 (c68e22c387, 2021-05-23)"
   sodipodi:docname="Asus.svg"
   xmlns:inkscape="http://www.inkscape.org/namespaces/inkscape"
   xmlns:sodipodi="http://sodipodi.sourceforge.net/DTD/sodipodi-0.dtd"
   xmlns="http://www.w3.org/2000/svg"
   xmlns:svg="http://www.w3.org/2000/svg">
  <sodipodi:namedview
     inkscape:zoom="0.64"
     inkscape:cx="371.09375"
     inkscape:cy="557.03125"
     inkscape:window-width="1920"
     inkscape:window-height="1017"
     inkscape:window-x="-8"
     inkscape:window-y="-8"
     inkscape:window-maximized="1"
     inkscape:current-layer="layer1"
     pagecolor="#000000"
     inkscape:pageopacity="0"
     bordercolor="#ffffff"
     borderopacity="1"
     id="namedview2019"
     inkscape:pageshadow="2"
     inkscape:pagecheckerboard="0"
     inkscape:document-units="mm" />
  <defs
     id="defs2021" />
  <g
     inkscape:label="Capa 1"
     inkscape:groupmode="layer"
     id="layer1">
    <path
       d="m 175.75004,87.732011 c 0,-1.880264 1.51037,-3.421462 3.35981,-3.421462 0.8939,0 1.72615,0.369888 2.37345,0.986367 0.64731,0.647306 0.98637,1.510376 0.98637,2.404274 0,0.893897 -0.33906,1.756968 -0.98637,2.404274 -0.6473,0.647303 -1.47955,1.017193 -2.37345,1.017193 -1.84944,0 -3.35981,-1.510377 -3.35981,-3.390643 m -0.27742,0 c 0,2.034386 1.63367,3.698883 3.66806,3.698883 0.98637,0 1.88026,-0.369888 2.55839,-1.078842 0.67813,-0.708951 1.07884,-1.633672 1.07884,-2.620041 0,-0.98637 -0.36989,-1.911088 -1.07884,-2.620042 -0.70895,-0.708951 -1.60285,-1.078841 -2.55839,-1.078841 -2.03439,0 -3.66806,1.664499 -3.66806,3.698883 m 2.28098,2.188506 h 0.52401 v -1.726147 h 1.17131 c 0.18494,0 0.33906,0 0.46236,0.06165 0.15412,0.09247 0.24659,0.277415 0.27741,0.524007 l 0.0617,0.678127 c 0,0.154122 0,0.246594 0,0.308242 0.0308,0.06165 0.0308,0.09247 0.0616,0.123296 h 0.6473 v -0.09247 c -0.0925,-0.03082 -0.12329,-0.123296 -0.15412,-0.246591 -0.0308,-0.06165 -0.0308,-0.184947 -0.0308,-0.339069 l -0.0308,-0.524008 c 0,-0.246591 -0.0617,-0.400711 -0.1233,-0.493186 -0.0925,-0.09247 -0.21577,-0.184943 -0.36989,-0.246591 0.18495,-0.09247 0.30824,-0.215768 0.40072,-0.369888 0.0925,-0.154119 0.12329,-0.339063 0.12329,-0.585655 0,-0.462362 -0.18494,-0.770602 -0.52401,-0.955545 -0.18494,-0.09247 -0.43153,-0.123296 -0.70895,-0.123296 h -1.75697 z m 0.49318,-2.188506 v -1.387081 h 1.23296 c 0.18495,0 0.33907,0.03082 0.43154,0.09247 0.18494,0.09247 0.27741,0.308239 0.27741,0.585658 0,0.277415 -0.0616,0.462359 -0.21576,0.554828 -0.1233,0.09247 -0.30824,0.15412 -0.55484,0.15412 z M 32.202562,92.817975 17.222089,116.36753 H 27.455665 L 41.881307,93.865992 Z m 61.678857,-0.524008 v -8.723198 h -29.12869 c -3.976298,0.246591 -5.702443,2.157682 -6.997051,3.513939 -1.38708,1.448729 -2.157682,4.500306 -2.157682,4.500306 V 83.632417 H 40.093513 c -1.171314,0 -2.280976,0.493183 -3.113226,1.664496 -0.863073,1.140489 -4.407835,6.997054 -4.407835,6.997054 z m 79.217751,0 v -8.723198 h -31.16309 c -3.94548,0.246591 -5.70244,2.157682 -6.99705,3.513939 -1.38708,1.448729 -2.15768,4.500306 -2.15768,4.500306 v 0.708953 z m -68.98416,-8.692374 h -8.723201 v 8.692374 h 8.723201 z m 28.57386,0 h -8.69237 v 8.692374 h 8.69237 z m 0,11.836423 -8.56907,-0.524007 v 10.079451 c 0,0 -0.0308,2.89746 -2.83581,2.89746 h -14.67224 c 0,0 -2.49674,-0.21577 -2.49674,-2.86663 V 93.557752 l -8.630731,-0.616481 v 15.442839 c 1.38708,7.39776 8.075891,7.98342 8.075891,7.98342 0,0 0.67813,0.0308 0.80143,0.0617 h 19.88149 c 0,0 8.50743,-0.67813 8.50743,-8.87732 z M 46.720677,116.36753 h 40.749362 c 7.08952,-1.41791 7.8293,-7.89095 7.8293,-7.89095 0.33906,-1.91109 0.15412,-3.48312 0.15412,-3.48312 -0.21577,-1.29461 -2.68169,-7.027874 -7.98342,-7.521057 -3.17488,-0.308242 -31.440507,-2.558394 -31.440507,-2.558394 0.554833,2.835812 1.818618,4.284541 2.681689,5.085964 1.972739,1.880267 5.085964,2.435097 5.085964,2.435097 0.739777,0.0617 21.792584,1.81862 21.792584,1.81862 0.67813,0.0308 1.94192,0.21577 1.91109,1.88027 0,0.21576 -0.18494,1.66449 -1.78779,1.66449 H 55.228108 V 94.852361 l -8.476607,-0.616482 c -0.03082,0 -0.03082,22.131651 -0.03082,22.131651 z m 86.029843,0.0617 h 31.19392 c 7.8293,-0.46236 8.93896,-7.89095 8.93896,-7.89095 0.27742,-1.94192 0.0616,-3.54477 0.0616,-3.54477 -0.21577,-1.75696 -2.71251,-7.058698 -8.04507,-7.582708 -3.14405,-0.308239 -31.59462,-1.972736 -31.59462,-1.972736 0.83224,2.928282 1.97273,3.822179 2.8358,4.623604 1.97274,1.91109 4.90102,2.34263 4.90102,2.34263 0.73978,0.0617 22.00836,1.84944 22.00836,1.84944 0.67813,0.0308 2.06521,0.0925 2.06521,1.75697 0,0.49318 -0.24659,1.01719 -0.55483,1.29461 0,0 -0.73978,0.40071 -1.44873,0.40071 h -30.2692 z"
       id="path952"
       style="fill:#ffffff" />
  </g>
</svg>
