<?xml version="1.0" encoding="UTF-8" standalone="no"?>
<!-- Created with Inkscape (http://www.inkscape.org/) -->

<svg
   width="200mm"
   height="200mm"
   viewBox="0 0 200 200"
   version="1.1"
   id="svg1222"
   inkscape:version="1.1 (c68e22c387, 2021-05-23)"
   sodipodi:docname="Logitech.svg"
   xmlns:inkscape="http://www.inkscape.org/namespaces/inkscape"
   xmlns:sodipodi="http://sodipodi.sourceforge.net/DTD/sodipodi-0.dtd"
   xmlns="http://www.w3.org/2000/svg"
   xmlns:svg="http://www.w3.org/2000/svg">
  <sodipodi:namedview
     inkscape:zoom="0.64"
     inkscape:cx="102.34375"
     inkscape:cy="403.90625"
     inkscape:window-width="1920"
     inkscape:window-height="1017"
     inkscape:window-x="-8"
     inkscape:window-y="-8"
     inkscape:window-maximized="1"
     inkscape:current-layer="layer1"
     pagecolor="#000000"
     inkscape:pageopacity="0"
     bordercolor="#ffffff"
     borderopacity="1"
     id="namedview2653"
     inkscape:pageshadow="2"
     inkscape:pagecheckerboard="0"
     inkscape:document-units="mm" />
  <defs
     id="defs2655" />
  <g
     inkscape:label="Capa 1"
     inkscape:groupmode="layer"
     id="layer1">
    <g
       id="g2651"
       transform="translate(0,-3.2223354)">
      <path
         d="m 66.149563,160.16374 c -4.163447,0 -7.386762,-3.22332 -7.386762,-7.52103 0,-4.16346 3.223315,-7.38678 7.386762,-7.38678 4.163446,0 7.386761,3.22332 7.386761,7.38678 0,4.16345 -3.357618,7.52103 -7.386761,7.52103 z m 13.430476,-15.17643 v -5.10355 H 70.58162 c -1.477354,-0.67157 -2.954703,-0.80583 -4.432057,-0.80583 -7.789676,0 -13.833391,5.90938 -13.833391,13.69909 0,7.78966 6.043715,13.56477 13.699087,13.56477 7.655373,0 13.699088,-5.90942 13.699088,-13.56477 0,-2.68611 -0.805828,-5.1036 -2.14888,-6.98388 z m -43.380441,15.17643 c -4.163452,0 -7.386767,-3.22332 -7.386767,-7.52103 0,-4.16346 3.223315,-7.38678 7.386767,-7.38678 4.163446,0 7.386761,3.22332 7.386761,7.38678 0,4.16345 -3.089012,7.52103 -7.386761,7.52103 z m 0,-21.08581 c -7.789681,0 -13.699088,5.90938 -13.699088,13.56478 0,7.65534 6.043715,13.69908 13.699088,13.69908 7.655372,0 13.699088,-5.90942 13.699088,-13.56477 0,-7.6554 -5.909413,-13.69909 -13.699088,-13.69909 z m -22.697512,26.59235 h 6.312326 v -36.53092 h -6.312326 c 0,0 0,36.53092 0,36.53092 z m 68.898354,0 h 6.312326 V 139.88376 H 82.40044 Z m -16.250877,8.99838 c -4.163447,0 -7.386762,-3.22332 -7.386762,-7.38672 h -6.446629 c 0,7.78966 6.043715,13.56477 13.699087,13.56477 7.655373,0 13.833391,-5.90943 13.833391,-13.56477 h -6.312326 c -0.134313,4.29771 -3.357618,7.38672 -7.386761,7.38672 z m 46.335157,-24.57775 c 0.94013,-3.35763 3.35761,-5.23792 6.71523,-5.23792 3.35762,0 5.90941,1.88029 6.58094,5.23792 z m 6.98384,-11.01298 c -7.78967,0 -13.56478,5.90938 -13.56478,13.69909 0,7.78966 5.23788,13.29615 13.56478,13.29615 4.43206,0 8.59551,-1.74597 11.68452,-4.83498 l -4.43206,-4.43203 c -2.14887,2.14886 -4.43206,3.35758 -7.11815,3.35758 -3.62623,0 -6.17802,-2.14886 -6.98385,-5.23786 h 20.01141 v -1.47735 c 0,-8.46122 -5.50649,-14.3706 -13.16187,-14.3706 z m 56.67662,0 c -3.22331,0 -5.90941,1.07441 -7.78968,3.22332 v -13.2962 h -6.31232 v 36.53091 h 6.31232 v -13.96771 c 0,-3.76052 2.28318,-6.178 6.17803,-6.178 3.62622,0 5.6408,2.28317 5.6408,6.178 v 13.96771 h 6.31232 V 150.4938 c 0.26862,-7.11815 -4.29775,-11.41587 -10.34147,-11.41587 z m -27.80109,6.31232 c 2.68609,0 4.83497,1.34303 6.58094,3.35763 l 4.43205,-4.43209 c -2.55179,-3.22331 -6.31232,-5.1036 -11.01299,-5.1036 -7.78968,0 -13.69909,5.90943 -13.69909,13.56483 0,7.65535 6.04372,13.56477 13.69909,13.56477 4.43206,0 8.4612,-2.14891 11.01299,-5.1036 l -4.43205,-4.43203 c -1.74597,1.88024 -4.02915,3.35758 -6.58094,3.35758 -4.16345,0 -7.11815,-3.22332 -7.11815,-7.38672 -0.26863,-4.16346 3.08901,-7.38677 7.11815,-7.38677 z m -46.73806,-13.43051 h -6.312331 v 7.92402 h -3.357618 v 5.6408 h 3.357618 v 20.0114 h 6.312331 v -20.0114 h 3.62623 v -5.6408 h -3.62623 z m -15.847973,-3.62621 c -2.283177,0 -4.163446,1.88029 -4.163446,4.43203 0,2.28323 1.880269,4.16346 4.163446,4.16346 2.551795,0 4.432058,-1.88023 4.432058,-4.16346 -0.268626,-2.55174 -2.148875,-4.43203 -4.432058,-4.43203 z"
         id="Shape"
         style="fill:#ffffff;fill-rule:nonzero;stroke:none;stroke-width:1.34305"
         inkscape:export-filename="C:\Users\suitedoalex\sites\logitech-logo-18.png"
         inkscape:export-xdpi="25.764896"
         inkscape:export-ydpi="25.764896"
         inkscape:connector-curvature="0" />
      <g
         id="g924"
         style="fill:none;fill-rule:evenodd;stroke:none;stroke-width:1"
         transform="matrix(1.5530181,0,0,1.5530181,-154.85027,24.976752)">
        <path
           d="m 165.2,0.4 v 9.7 c -7.6,0 -13.6,6 -13.6,13.6 0,7.4 6,13.6 13.6,13.6 V 47 c -12.9,0 -23.4,-10.4 -23.4,-23.3 0,-12.9 10.5,-23.3 23.4,-23.3 z"
           id="Shape-path"
           inkscape:export-filename="C:\Users\suitedoalex\sites\logitech-logo-18.png"
           inkscape:export-xdpi="25.764896"
           inkscape:export-ydpi="25.764896"
           inkscape:connector-curvature="0"
           style="fill:#00b8fc" />
        <polygon
           id="polygon10"
           points="165.5,29 176.8,29 176.8,40.3 186.4,40.3 186.4,19.5 165.5,19.5 "
           inkscape:export-filename="C:\Users\suitedoalex\sites\logitech-logo-18.png"
           inkscape:export-xdpi="25.764896"
           inkscape:export-ydpi="25.764896"
           style="fill:#00b8fc" />
      </g>
    </g>
  </g>
</svg>
