<?xml version="1.0" encoding="UTF-8" standalone="no"?>
<!-- Created with Inkscape (http://www.inkscape.org/) -->

<svg
   width="200mm"
   height="200mm"
   viewBox="0 0 200 200"
   version="1.1"
   id="svg1222"
   inkscape:version="1.1 (c68e22c387, 2021-05-23)"
   sodipodi:docname="Nvidia.svg"
   xmlns:inkscape="http://www.inkscape.org/namespaces/inkscape"
   xmlns:sodipodi="http://sodipodi.sourceforge.net/DTD/sodipodi-0.dtd"
   xmlns="http://www.w3.org/2000/svg"
   xmlns:svg="http://www.w3.org/2000/svg">
  <sodipodi:namedview
     inkscape:zoom="0.64"
     inkscape:cx="371.09375"
     inkscape:cy="557.03125"
     inkscape:window-width="1920"
     inkscape:window-height="1017"
     inkscape:window-x="-8"
     inkscape:window-y="-8"
     inkscape:window-maximized="1"
     inkscape:current-layer="layer1"
     pagecolor="#000000"
     inkscape:pageopacity="0"
     bordercolor="#ffffff"
     borderopacity="1"
     id="namedview2120"
     inkscape:pageshadow="2"
     inkscape:pagecheckerboard="0"
     inkscape:document-units="mm" />
  <defs
     id="defs2122" />
  <g
     inkscape:label="Capa 1"
     inkscape:groupmode="layer"
     id="layer1">
    <g
       fill-rule="evenodd"
       fill="none"
       id="g6"
       transform="matrix(0.91141152,0,0,0.91141152,8.8656828,29.444444)">
      <path
         fill="#ffffff"
         d="m 83.166,117.393 0.004,37.434 H 93.74 V 117.394 H 83.166 Z M 0,117.343 v 37.484 h 10.666 v -28.463 l 8.263,0.003 c 2.737,0 4.686,0.681 6.005,2.088 1.673,1.782 2.355,4.655 2.355,9.912 v 16.46 h 10.334 v -20.71 c 0,-14.781 -9.422,-16.775 -18.64,-16.775 H 0 Z m 100.188,0.051 v 37.433 h 17.148 c 9.136,0 12.117,-1.52 15.342,-4.926 2.28,-2.392 3.753,-7.642 3.753,-13.379 0,-5.261 -1.247,-9.956 -3.422,-12.879 -3.917,-5.227 -9.56,-6.249 -17.983,-6.249 z m 10.487,8.15 h 4.546 c 6.594,0 10.86,2.962 10.86,10.646 0,7.686 -4.266,10.647 -10.86,10.647 h -4.546 v -21.292 z m -42.752,-8.15 -8.823,29.668 -8.455,-29.666 -11.412,-0.002 12.074,37.433 h 15.238 l 12.169,-37.433 h -10.79 z m 73.427,37.433 h 10.574 v -37.43 l -10.576,-0.003 z m 29.637,-37.42 -14.763,37.407 h 10.425 l 2.336,-6.612 h 17.47 l 2.21,6.612 h 11.32 l -14.876,-37.41 -14.122,0.004 z m 6.863,6.825 6.404,17.524 h -13.01 z"
         id="path2" />
      <path
         fill="#76b900"
         d="m 69.189,29.708 v -8.993 a 67.728,67.728 0 0 1 2.653,-0.136 c 24.596,-0.773 40.733,21.134 40.733,21.134 0,0 -17.428,24.206 -36.115,24.206 -2.692,0 -5.1,-0.433 -7.271,-1.162 v -27.27 c 9.575,1.156 11.5,5.386 17.258,14.982 L 99.25,41.674 c 0,0 -9.345,-12.258 -25.1,-12.258 -1.715,0 -3.353,0.12 -4.961,0.292 z m 0,-29.707 v 13.433 c 0.882,-0.07 1.766,-0.126 2.653,-0.158 34.205,-1.152 56.489,28.052 56.489,28.052 0,0 -25.597,31.124 -52.262,31.124 -2.443,0 -4.73,-0.225 -6.88,-0.606 v 8.303 c 1.838,0.234 3.742,0.372 5.73,0.372 24.815,0 42.76,-12.672 60.138,-27.671 2.879,2.307 14.675,7.919 17.1,10.378 C 135.634,77.06 97.129,88.208 75.3,88.208 A 63.43,63.43 0 0 1 69.189,87.89 v 11.67 h 94.316 V 0 H 69.19 Z m 0,64.756 v 7.09 C 46.237,67.754 39.867,43.897 39.867,43.897 c 0,0 11.02,-12.21 29.322,-14.189 v 7.779 c -0.014,0 -0.024,-0.004 -0.036,-0.004 -9.604,-1.154 -17.108,7.82 -17.108,7.82 0,0 4.204,15.106 17.144,19.454 z M 28.425,42.862 c 0,0 13.602,-20.073 40.764,-22.148 v -7.28 c -30.084,2.414 -56.136,27.893 -56.136,27.893 0,0 14.754,42.658 56.137,46.563 V 80.15 C 38.822,76.328 28.425,42.862 28.425,42.862 Z"
         id="path4" />
    </g>
  </g>
</svg>
