<?xml version="1.0" encoding="UTF-8" standalone="no"?>
<!-- Created with Inkscape (http://www.inkscape.org/) -->

<svg
   width="200mm"
   height="200mm"
   viewBox="0 0 200 200"
   version="1.1"
   id="svg1222"
   inkscape:version="1.1 (c68e22c387, 2021-05-23)"
   sodipodi:docname="Samsung.svg"
   xmlns:inkscape="http://www.inkscape.org/namespaces/inkscape"
   xmlns:sodipodi="http://sodipodi.sourceforge.net/DTD/sodipodi-0.dtd"
   xmlns="http://www.w3.org/2000/svg"
   xmlns:svg="http://www.w3.org/2000/svg">
  <sodipodi:namedview
     inkscape:zoom="0.64"
     inkscape:cx="346.09375"
     inkscape:cy="403.90625"
     inkscape:window-width="1920"
     inkscape:window-height="1017"
     inkscape:window-x="-8"
     inkscape:window-y="-8"
     inkscape:window-maximized="1"
     inkscape:current-layer="layer1"
     pagecolor="#000000"
     inkscape:pageopacity="0"
     bordercolor="#ffffff"
     borderopacity="1"
     id="namedview3457"
     inkscape:pageshadow="2"
     inkscape:pagecheckerboard="0"
     inkscape:document-units="mm" />
  <defs
     id="defs3459" />
  <g
     inkscape:label="Capa 1"
     inkscape:groupmode="layer"
     id="layer1">
    <path
       fill="#1428a0"
       d="m 148.58858,106.08248 h -0.11462 l -4.87408,-16.954711 h -7.8627 v 21.374551 h 5.20849 l -0.29336,-17.540481 h 0.11462 l 5.23376,17.540481 h 7.54404 V 89.126709 h -5.24318 z M 48.556483,89.126709 44.63407,110.72736 h 5.723783 l 2.900269,-19.606841 h 0.120991 l 2.823515,19.607861 h 5.690117 L 57.988206,89.126709 Z m 32.016608,0.002 -2.616343,16.515161 H 77.837879 L 75.234145,89.128479 H 66.593239 L 66.12426,110.72701 h 5.297893 l 0.132454,-19.423871 h 0.119717 l 3.538595,19.423871 h 5.373629 l 3.539613,-19.417541 0.117595,-0.004 0.137548,19.423861 h 5.300017 L 89.21336,89.130809 Z m -49.064886,5.55449 c -0.09976,-0.44168 -0.07556,-0.88333 -0.02122,-1.12731 0.152407,-0.69406 0.610943,-1.45435 1.937008,-1.45435 1.242985,0 1.96647,0.78448 1.96647,1.95594 v 1.33447 h 5.290507 v -1.50797 c 0,-4.71218 -4.145333,-5.44721 -7.146557,-5.44721 -3.765718,0 -6.840554,1.27559 -7.407388,4.79945 -0.154529,0.9464 -0.173633,1.81398 0.05137,2.90761 0.920128,4.414581 8.446343,5.693301 9.538917,8.485231 0.205048,0.52056 0.138821,1.19566 0.03821,1.60367 -0.17151,0.70667 -0.647792,1.44175 -2.06216,1.44175 -1.322881,0 -2.130509,-0.77294 -2.130509,-1.95173 l -0.0031,-2.09584 h -5.680692 l -0.0031,1.66994 c 0,4.81835 3.718426,6.26638 7.700782,6.26638 3.838271,0 6.984598,-1.32288 7.493568,-4.92876 0.25854,-1.86973 0.06835,-3.0959 -0.02122,-3.55333 -0.896991,-4.524951 -8.933195,-5.862561 -9.537855,-8.397941 z m 68.931415,0.0505 c -0.10401,-0.43116 -0.0747,-0.86864 -0.0255,-1.10735 0.14816,-0.68982 0.60254,-1.44171 1.91701,-1.44171 1.22825,0 1.94966,0.7729 1.94966,1.92861 v 1.325 h 5.23375 v -1.49431 c 0,-4.6543 -4.10751,-5.38725 -7.0698,-5.38725 -3.73316,0 -6.781676,1.24718 -7.335859,4.74893 -0.15453,0.94224 -0.178728,1.80349 0.04839,2.88137 0.911723,4.368261 8.363259,5.637531 9.447439,8.399011 0.19782,0.52052 0.13797,1.18406 0.0425,1.58894 -0.17236,0.71194 -0.64882,1.42489 -2.04323,1.42489 -1.3166,0 -2.1095,-0.76135 -2.1095,-1.92754 l -0.004,-2.08003 h -5.631372 v 1.65516 c 0,4.76897 3.685821,6.20015 7.629252,6.20015 3.79097,0 6.91102,-1.31129 7.41053,-4.87935 0.25641,-1.84552 0.0675,-3.06117 -0.0212,-3.51647 -0.88859,-4.476641 -8.84804,-5.806861 -9.43695,-8.318051 z m 24.0277,10.367561 c 0.004,0.27467 -0.004,0.59204 -0.0492,0.82342 -0.10529,0.53732 -0.55839,1.55421 -2.03168,1.55421 -1.46802,0 -1.92652,-1.01689 -2.03168,-1.55421 -0.045,-0.23138 -0.0556,-0.54897 -0.0535,-0.82342 V 89.124919 h -5.35465 v 15.481421 c -0.009,0.40076 0.0297,1.21144 0.0492,1.42702 0.36382,4.0265 3.49334,5.32731 7.38947,5.32731 3.89193,0 7.02039,-1.30081 7.3958,-5.32731 0.017,-0.21566 0.0598,-1.02741 0.0535,-1.42702 V 89.124919 h -5.36836 v 15.976721 z m 42.15806,-6.517701 v 3.163131 h 2.16944 v 3.13271 c 0.009,0.27254 -0.004,0.57311 -0.0497,0.82023 -0.0947,0.58152 -0.63515,1.56266 -2.16312,1.56266 -1.53213,0 -2.07056,-0.98219 -2.16939,-1.56266 -0.0425,-0.24707 -0.0539,-0.5479 -0.0471,-0.82023 v -9.882831 c 0,-0.35109 0.0212,-0.73504 0.0862,-1.0137 0.11251,-0.5321 0.56891,-1.56792 2.10945,-1.56792 1.62052,0 2.02119,1.09363 2.1179,1.56792 0.0619,0.29972 0.0662,0.81603 0.0662,0.81392 v 1.21665 h 5.33992 v -0.72135 c -0.003,0 0.017,-0.73823 -0.0433,-1.4123 -0.39227,-4.06225 -3.68472,-5.34098 -7.43681,-5.34098 -3.75417,0 -6.96884,1.28922 -7.43468,5.34098 -0.0454,0.34897 -0.0925,1.02848 -0.0925,1.4123 l -0.002,9.087801 c 0.002,0.40713 0.0127,0.7077 0.0734,1.42698 0.34897,3.93294 3.70158,5.34209 7.45151,5.34209 3.75209,0 7.10452,-1.40915 7.45574,-5.34209 0.0578,-0.7203 0.0662,-1.02109 0.0675,-1.42698 v -5.796331 z"
       id="svg_1"
       style="fill:#ffffff;stroke-width:1.12324" />
  </g>
</svg>
