<?xml version="1.0" encoding="UTF-8" standalone="no"?>
<!-- Created with Inkscape (http://www.inkscape.org/) -->

<svg
   width="200mm"
   height="200mm"
   viewBox="0 0 200 200"
   version="1.1"
   id="svg1222"
   inkscape:version="1.1 (c68e22c387, 2021-05-23)"
   sodipodi:docname="Seagate.svg"
   xmlns:inkscape="http://www.inkscape.org/namespaces/inkscape"
   xmlns:sodipodi="http://sodipodi.sourceforge.net/DTD/sodipodi-0.dtd"
   xmlns="http://www.w3.org/2000/svg"
   xmlns:svg="http://www.w3.org/2000/svg">
  <sodipodi:namedview
     inkscape:zoom="0.64"
     inkscape:cx="303.90625"
     inkscape:cy="352.34375"
     inkscape:window-width="1920"
     inkscape:window-height="1017"
     inkscape:window-x="-8"
     inkscape:window-y="-8"
     inkscape:window-maximized="1"
     inkscape:current-layer="layer1"
     pagecolor="#000000"
     inkscape:pageopacity="0"
     bordercolor="#ffffff"
     borderopacity="1"
     id="namedview3712"
     inkscape:pageshadow="2"
     inkscape:pagecheckerboard="0"
     inkscape:document-units="mm" />
  <defs
     id="defs3718">
    <clipPath
       clipPathUnits="userSpaceOnUse"
       id="clipPath72-2">
      <path
         d="m 441.478,785.616 h 112.43 v 27.255 h -112.43 z"
         id="path70-3"
         inkscape:connector-curvature="0" />
    </clipPath>
    <clipPath
       clipPathUnits="userSpaceOnUse"
       id="clipPath100-6">
      <path
         d="m 441.478,785.616 h 112.426 v 27.255 H 441.478 Z"
         id="path98-1"
         inkscape:connector-curvature="0" />
    </clipPath>
  </defs>
  <g
     inkscape:label="Capa 1"
     inkscape:groupmode="layer"
     id="layer1">
    <g
       id="g3710"
       transform="translate(1.2402339,11.966359)">
      <g
         id="g3593"
         transform="matrix(0.25944818,0,0,0.25944818,8.8935936,115.60833)"
         style="fill:#ffffff">
        <g
           id="g74"
           transform="matrix(7.7406869,0,0,-7.7406869,85.896662,117.10429)"
           style="fill:#ffffff;fill-opacity:1">
          <path
             d="m 0,0 c -0.293,0.164 -0.614,0.291 -0.96,0.384 -0.347,0.091 -0.667,0.193 -0.961,0.307 -0.293,0.116 -0.539,0.264 -0.738,0.447 -0.198,0.183 -0.297,0.446 -0.297,0.789 0,0.122 0.025,0.256 0.074,0.399 0.05,0.146 0.135,0.282 0.258,0.408 0.121,0.126 0.284,0.228 0.486,0.308 0.202,0.08 0.455,0.12 0.76,0.12 0.32,0 0.606,-0.065 0.858,-0.194 0.251,-0.129 0.446,-0.302 0.583,-0.515 L 0.955,3.265 C 0.65,3.639 0.296,3.886 -0.109,4.009 -0.513,4.13 -0.936,4.192 -1.378,4.192 -1.866,4.192 -2.283,4.117 -2.63,3.969 -2.977,3.82 -3.261,3.635 -3.482,3.414 -3.703,3.193 -3.865,2.949 -3.968,2.682 -4.071,2.415 -4.123,2.163 -4.123,1.927 c 0,-0.526 0.1,-0.943 0.298,-1.252 0.198,-0.308 0.444,-0.555 0.738,-0.738 0.293,-0.183 0.613,-0.325 0.96,-0.429 0.347,-0.103 0.667,-0.21 0.961,-0.32 0.293,-0.11 0.539,-0.248 0.738,-0.411 0.198,-0.165 0.297,-0.403 0.297,-0.715 0,-0.222 -0.05,-0.415 -0.149,-0.583 -0.099,-0.167 -0.227,-0.309 -0.383,-0.424 -0.156,-0.113 -0.33,-0.199 -0.52,-0.257 -0.191,-0.057 -0.377,-0.085 -0.56,-0.085 -0.329,0 -0.646,0.07 -0.956,0.211 -0.308,0.141 -0.562,0.36 -0.76,0.657 l -0.904,-0.777 c 0.275,-0.382 0.645,-0.664 1.109,-0.846 0.466,-0.184 0.958,-0.276 1.476,-0.276 0.389,0 0.755,0.058 1.098,0.173 0.343,0.114 0.64,0.278 0.892,0.492 0.251,0.213 0.452,0.477 0.601,0.788 0.147,0.313 0.222,0.665 0.222,1.053 0,0.487 -0.099,0.87 -0.297,1.149 C 0.539,-0.384 0.293,-0.163 0,0"
             style="fill:#ffffff;fill-opacity:1;fill-rule:nonzero;stroke:none"
             id="path76"
             inkscape:connector-curvature="0" />
        </g>
        <g
           id="g78"
           transform="matrix(7.7406869,0,0,-7.7406869,148.61325,120.86626)"
           style="fill:#ffffff;fill-opacity:1">
          <path
             d="M 0,0 H 3.842 V 1.029 H 0 v 2.414 h 4.129 v 1.028 h -5.227 v -8.096 h 5.433 v 1.031 H 0 Z"
             style="fill:#ffffff;fill-opacity:1;fill-rule:nonzero;stroke:none"
             id="path80"
             inkscape:connector-curvature="0" />
        </g>
        <g
           id="g82"
           transform="matrix(7.7406869,0,0,-7.7406869,238.99352,125.99292)"
           style="fill:#ffffff;fill-opacity:1">
          <path
             d="M 0,0 1.533,3.716 H 1.556 L 3.065,0 Z M 1.098,5.134 -2.47,-2.963 h 1.282 l 0.799,2.002 H 3.465 L 4.277,-2.963 H 5.558 L 2.093,5.134 Z"
             style="fill:#ffffff;fill-opacity:1;fill-rule:nonzero;stroke:none"
             id="path84"
             inkscape:connector-curvature="0" />
        </g>
        <g
           id="g86"
           transform="matrix(7.7406869,0,0,-7.7406869,354.78335,121.83462)"
           style="fill:#ffffff;fill-opacity:1">
          <path
             d="M 0,0 H 1.795 V -2.253 C 1.551,-2.39 1.256,-2.495 0.909,-2.568 0.562,-2.64 0.195,-2.676 -0.194,-2.676 c -0.45,0 -0.866,0.082 -1.247,0.246 -0.381,0.163 -0.714,0.391 -0.995,0.68 -0.282,0.29 -0.503,0.631 -0.663,1.023 -0.16,0.393 -0.24,0.818 -0.24,1.276 0,0.442 0.071,0.859 0.217,1.252 0.145,0.393 0.351,0.733 0.617,1.023 0.268,0.29 0.588,0.521 0.961,0.692 0.373,0.172 0.793,0.257 1.258,0.257 0.411,0 0.804,-0.063 1.178,-0.188 C 1.266,3.459 1.62,3.236 1.956,2.915 L 2.733,3.752 C 2.413,4.078 2.017,4.335 1.544,4.523 1.07,4.71 0.462,4.803 -0.286,4.803 -0.904,4.803 -1.471,4.695 -1.99,4.476 -2.508,4.259 -2.953,3.96 -3.322,3.579 -3.692,3.198 -3.982,2.748 -4.192,2.23 -4.401,1.712 -4.505,1.151 -4.505,0.549 c 0,-0.573 0.096,-1.116 0.291,-1.631 0.194,-0.514 0.476,-0.966 0.846,-1.354 0.37,-0.389 0.824,-0.697 1.36,-0.927 0.539,-0.228 1.151,-0.343 1.836,-0.343 0.244,0 0.506,0.016 0.783,0.046 0.279,0.031 0.553,0.08 0.824,0.143 0.27,0.065 0.532,0.142 0.784,0.235 0.251,0.091 0.476,0.198 0.674,0.32 V 1.029 H 0 Z"
             style="fill:#ffffff;fill-opacity:1;fill-rule:nonzero;stroke:none"
             id="path88"
             inkscape:connector-curvature="0" />
        </g>
        <g
           id="g90"
           transform="matrix(7.7406869,0,0,-7.7406869,437.46473,125.99292)"
           style="fill:#ffffff;fill-opacity:1">
          <path
             d="M 0,0 1.533,3.716 H 1.555 L 3.065,0 Z M 1.099,5.134 -2.47,-2.963 h 1.28 l 0.8,2.002 H 3.466 L 4.277,-2.963 H 5.558 L 2.094,5.134 Z"
             style="fill:#ffffff;fill-opacity:1;fill-rule:nonzero;stroke:none"
             id="path92"
             inkscape:connector-curvature="0" />
        </g>
        <g
           id="g102"
           transform="matrix(7.7406869,0,0,-7.7406869,507.04112,94.215853)"
           style="fill:#ffffff;fill-opacity:1">
          <path
             d="M 0,0 H 2.608 V -7.068 H 3.706 V 0 H 6.313 V 1.029 H 0 Z"
             style="fill:#ffffff;fill-opacity:1;fill-rule:nonzero;stroke:none"
             id="path104"
             inkscape:connector-curvature="0" />
        </g>
        <g
           id="g106"
           transform="matrix(7.7406869,0,0,-7.7406869,607.0686,120.86626)"
           style="fill:#ffffff;fill-opacity:1">
          <path
             d="M 0,0 H 3.843 V 1.029 H 0 v 2.414 h 4.129 v 1.028 h -5.226 v -8.096 h 5.432 v 1.031 H 0 Z"
             style="fill:#ffffff;fill-opacity:1;fill-rule:nonzero;stroke:none"
             id="path108"
             inkscape:connector-curvature="0" />
        </g>
      </g>
      <g
         id="g110"
         transform="matrix(3.3121506,0,0,-3.3121506,95.497988,111.67725)"
         style="fill:#6ebe4a;fill-opacity:1">
        <path
           d="m 0,0 c -0.337,1.281 -0.667,2.541 -0.99,3.769 0.348,0.169 0.636,0.302 1.016,0.49 1.58,0.673 3.107,1.445 4.529,2.414 1.779,1.213 3.44,2.569 4.887,4.167 1.136,1.254 2.083,2.638 2.623,4.264 0.359,1.081 0.536,2.187 0.378,3.327 -0.132,0.945 -0.479,1.808 -1.016,2.598 -0.648,0.953 -1.491,1.677 -2.517,2.195 -1.284,0.648 -2.654,0.887 -4.079,0.845 -1.264,-0.037 -2.482,-0.315 -3.667,-0.748 -2.18,-0.797 -4.18,-1.936 -6.1,-3.225 -0.56,-0.376 -1.074,-0.811 -1.52,-1.323 -0.243,-0.279 -0.429,-0.587 -0.508,-0.955 -0.132,-0.622 0.224,-1.095 0.858,-1.125 0.443,-0.021 0.839,0.151 1.226,0.334 1.206,0.57 2.295,1.338 3.422,2.041 0.926,0.578 1.86,1.141 2.877,1.546 1.002,0.399 2.037,0.618 3.121,0.436 C 5.72,20.853 6.67,20.296 7.247,19.212 7.651,18.452 7.683,17.647 7.47,16.826 7.228,15.89 6.686,15.13 6.046,14.433 5.162,13.47 4.145,12.67 3.02,12.011 1.842,11.319 0.673,10.607 -0.536,9.972 -1.95,9.229 -3.456,8.702 -4.99,8.257 -6.279,7.883 -7.59,7.714 -8.927,7.832 c -1.121,0.1 -2.177,0.425 -3.108,1.073 -0.84,0.586 -1.461,1.363 -1.836,2.321 -0.581,1.48 -0.551,2.989 -0.184,4.509 0.416,1.717 1.286,3.201 2.36,4.58 0.816,1.047 1.756,1.973 2.769,2.825 1.434,1.207 2.955,2.292 4.586,3.22 0.552,0.314 1.114,0.609 1.639,0.895 0.183,-0.377 0.358,-0.737 0.537,-1.106 -0.486,-0.261 -0.965,-0.511 -1.438,-0.774 -2.035,-1.133 -3.9,-2.5 -5.561,-4.135 -0.901,-0.887 -1.664,-1.888 -2.241,-3.018 -0.605,-1.184 -0.929,-2.437 -0.786,-3.773 0.157,-1.464 0.843,-2.588 2.19,-3.263 0.804,-0.403 1.662,-0.523 2.547,-0.504 1.22,0.027 2.37,0.373 3.506,0.78 1.693,0.605 3.269,1.45 4.802,2.377 0.901,0.544 1.798,1.096 2.559,1.832 0.402,0.388 0.804,0.784 1.01,1.324 0.365,0.961 -0.155,1.793 -1.184,1.891 -0.56,0.053 -1.069,-0.133 -1.564,-0.363 -1.309,-0.605 -2.485,-1.434 -3.705,-2.192 -0.932,-0.579 -1.874,-1.141 -2.899,-1.542 -0.71,-0.277 -1.444,-0.45 -2.215,-0.362 -1.321,0.151 -2.148,1.195 -2.005,2.519 0.113,1.041 0.62,1.89 1.304,2.647 0.757,0.837 1.64,1.524 2.587,2.13 1.456,0.93 2.932,1.821 4.513,2.529 1.832,0.821 3.711,1.472 5.728,1.65 1.459,0.128 2.902,0.047 4.325,-0.323 1.258,-0.327 2.418,-0.859 3.462,-1.633 1.035,-0.767 1.868,-1.718 2.499,-2.842 0.569,-1.015 0.894,-2.105 0.989,-3.263 0.101,-1.22 -0.044,-2.417 -0.396,-3.582 C 15.519,13.124 15.058,12.034 14.426,11.023 13.546,9.613 12.509,8.331 11.302,7.186 10.073,6.021 8.832,4.871 7.432,3.906 5.613,2.651 3.717,1.535 1.667,0.693 1.119,0.469 0.574,0.239 0,0"
           style="fill:#6ebe4a;fill-opacity:1;fill-rule:evenodd;stroke:none"
           id="path112"
           inkscape:connector-curvature="0" />
      </g>
    </g>
  </g>
</svg>
